<svg width="100" height="100" viewBox="0 0 374 342" fill="none" xmlns="http://www.w3.org/2000/svg">
<path d="M368.578 113.392C376.577 140.235 375.709 168.756 366.09 195.117C356.472 221.478 338.565 244.413 314.781 260.835C290.996 277.257 262.474 286.377 233.056 286.969C203.637 287.561 174.734 279.596 150.235 264.145C125.737 248.694 106.82 226.5 96.0301 200.55C85.2406 174.6 83.0967 146.139 89.8869 118.999C96.6772 91.8584 112.076 67.3415 134.009 48.7479C155.943 30.1543 183.36 18.3765 212.569 15L221.821 86.9199C208.477 86.92 195.252 94.0306 184.96 102.755C174.668 111.479 167.443 122.983 164.257 135.718C161.071 148.453 162.076 161.807 167.139 173.983C172.202 186.16 181.078 196.574 192.573 203.823C204.068 211.073 217.63 214.811 231.434 214.533C245.238 214.255 258.62 209.975 269.781 202.27C280.941 194.564 289.343 183.803 293.856 171.434C298.369 159.065 298.777 145.682 295.023 133.087L368.578 113.392Z" fill="black"/>
<path d="M368.578 113.392C376.577 140.235 375.709 168.756 366.09 195.117C356.472 221.478 338.565 244.413 314.781 260.835C290.996 277.257 262.474 286.377 233.056 286.969C203.637 287.561 174.734 279.596 150.235 264.145C125.737 248.694 106.82 226.5 96.0301 200.55C85.2406 174.6 83.0967 146.139 89.8869 118.999C96.6772 91.8584 112.076 67.3415 134.009 48.7479C155.943 30.1543 183.36 18.3765 212.569 15L221.821 86.9199C208.477 86.92 195.252 94.0306 184.96 102.755C174.668 111.479 167.443 122.983 164.257 135.718C161.071 148.453 162.076 161.807 167.139 173.983C172.202 186.16 181.078 196.574 192.573 203.823C204.068 211.073 217.63 214.811 231.434 214.533C245.238 214.255 258.62 209.975 269.781 202.27C280.941 194.564 289.343 183.803 293.856 171.434C298.369 159.065 298.777 145.682 295.023 133.087L368.578 113.392Z" fill="black" fill-opacity="0.2"/>
<path d="M54.4564 292.729C49.9762 293.666 46.0877 289.583 47.355 285.273L72.0361 201.332C73.3386 196.902 79.079 195.562 82.2936 198.937L144.864 264.628C148.078 268.003 146.312 273.516 141.707 274.479L54.4564 292.729Z" fill="black"/>
<path d="M54.4564 292.729C49.9762 293.666 46.0877 289.583 47.355 285.273L72.0361 201.332C73.3386 196.902 79.079 195.562 82.2936 198.937L144.864 264.628C148.078 268.003 146.312 273.516 141.707 274.479L54.4564 292.729Z" fill="black" fill-opacity="0.2"/>
<path d="M357.753 107.47C365.493 133.522 364.653 161.204 355.346 186.789C346.04 212.374 328.713 234.634 305.699 250.573C282.684 266.512 255.087 275.364 226.621 275.939C198.155 276.513 170.188 268.782 146.483 253.786C122.778 238.79 104.474 217.249 94.0338 192.063C83.5938 166.876 81.5193 139.253 88.0896 112.911C94.6599 86.57 109.56 62.7746 130.783 44.7282C152.006 26.6818 178.535 15.2507 206.798 11.9735L215.75 81.7768C202.839 81.7768 190.041 88.6782 180.083 97.1459C170.124 105.614 163.133 116.779 160.05 129.139C156.967 141.499 157.941 154.46 162.839 166.278C167.738 178.096 176.327 188.203 187.45 195.24C198.572 202.276 211.695 205.904 225.052 205.634C238.408 205.365 251.358 201.211 262.156 193.732C272.955 186.253 281.085 175.809 285.452 163.804C289.819 151.799 290.213 138.81 286.581 126.585L357.753 107.47Z" fill="#7B0685"/>
<path d="M357.753 107.47C365.493 133.522 364.653 161.204 355.346 186.789C346.04 212.374 328.713 234.634 305.699 250.573C282.684 266.512 255.087 275.364 226.621 275.939C198.155 276.513 170.188 268.782 146.483 253.786C122.778 238.79 104.474 217.249 94.0338 192.063C83.5938 166.876 81.5193 139.253 88.0896 112.911C94.6599 86.57 109.56 62.7746 130.783 44.7282C152.006 26.6818 178.535 15.2507 206.798 11.9735L215.75 81.7768C202.839 81.7768 190.041 88.6782 180.083 97.1459C170.124 105.614 163.133 116.779 160.05 129.139C156.967 141.499 157.941 154.46 162.839 166.278C167.738 178.096 176.327 188.203 187.45 195.24C198.572 202.276 211.695 205.904 225.052 205.634C238.408 205.365 251.358 201.211 262.156 193.732C272.955 186.253 281.085 175.809 285.452 163.804C289.819 151.799 290.213 138.81 286.581 126.585L357.753 107.47Z" fill="#7552AD" fill-opacity="0.2"/>
<path d="M53.865 286.113C49.4455 287.105 45.6045 282.914 46.8852 278.498L69.383 200.924C70.6869 196.428 76.3012 195.076 79.4407 198.501L134.574 258.652C137.713 262.078 135.995 267.681 131.496 268.691L53.865 286.113Z" fill="#7B0685"/>
<path d="M53.865 286.113C49.4455 287.105 45.6045 282.914 46.8852 278.498L69.383 200.924C70.6869 196.428 76.3012 195.076 79.4407 198.501L134.574 258.652C137.713 262.078 135.995 267.681 131.496 268.691L53.865 286.113Z" fill="#7552AD" fill-opacity="0.2"/>
<ellipse cx="223.664" cy="143.484" rx="34.2141" ry="34.496" fill="black"/>
<path d="M248.953 143.984C252.523 -4.77769 434.589 -39.2132 248.953 65.4708" stroke="black" stroke-width="10" stroke-linecap="round"/>
</svg>
